<svg data-v-ff54eeb7="" width="200" height="150" viewBox="0 0 404 249" fill="none" xmlns="http://www.w3.org/2000/svg"><mask id="path-1-inside-1_253_187" fill="white" data-v-ff54eeb7=""><path fill-rule="evenodd" clip-rule="evenodd" d="M86.9289 127.424C83.0237 123.519 83.0237 117.188 86.9289 113.282L115.66 84.5518V49.4327C115.66 43.9099 120.137 39.4327 125.66 39.4327H160.779L195.282 4.92893C199.188 1.02369 205.519 1.02369 209.424 4.92893L243.928 39.4327H278.894C284.417 39.4327 288.894 43.9099 288.894 49.4327V84.3988L317.778 113.282C321.683 117.188 321.683 123.519 317.778 127.424L288.894 156.308V202.668C288.894 208.19 284.417 212.668 278.894 212.668H232.535L209.424 235.778C205.519 239.683 199.188 239.683 195.282 235.778L172.172 212.668H125.66C120.137 212.668 115.66 208.19 115.66 202.668V156.155L86.9289 127.424Z" data-v-ff54eeb7=""></path></mask><path d="M86.9289 113.282L69.2513 95.6047L69.2513 95.6047L86.9289 113.282ZM86.9289 127.424L69.2513 145.102L69.2513 145.102L86.9289 127.424ZM115.66 84.5518L133.337 102.229L140.66 94.9071V84.5518H115.66ZM160.779 39.4327V64.4327H171.134L178.456 57.1104L160.779 39.4327ZM195.282 4.92893L177.605 -12.7487L177.605 -12.7487L195.282 4.92893ZM209.424 4.92893L191.747 22.6066L191.747 22.6066L209.424 4.92893ZM243.928 39.4327L226.251 57.1104L233.573 64.4327H243.928V39.4327ZM288.894 84.3988H263.894V94.7542L271.217 102.077L288.894 84.3988ZM288.894 156.308L271.217 138.63L263.894 145.953V156.308H288.894ZM232.535 212.668V187.668H222.179L214.857 194.99L232.535 212.668ZM172.172 212.668L189.85 194.99L182.527 187.668H172.172V212.668ZM115.66 156.155H140.66V145.8L133.337 138.477L115.66 156.155ZM69.2513 95.6047C55.5829 109.273 55.5829 131.434 69.2513 145.102L104.607 109.747C110.464 115.605 110.464 125.102 104.607 130.96L69.2513 95.6047ZM97.9818 66.8741L69.2513 95.6047L104.607 130.96L133.337 102.229L97.9818 66.8741ZM140.66 84.5518V49.4327H90.6595V84.5518H140.66ZM125.66 14.4327C106.33 14.4327 90.6595 30.1027 90.6595 49.4327H140.66C140.66 57.717 133.944 64.4327 125.66 64.4327V14.4327ZM125.66 64.4327H160.779V14.4327H125.66V64.4327ZM177.605 -12.7487L143.101 21.7551L178.456 57.1104L212.96 22.6066L177.605 -12.7487ZM227.102 -12.7487C213.434 -26.4171 191.273 -26.4171 177.605 -12.7487L212.96 22.6066C207.102 28.4645 197.605 28.4645 191.747 22.6066L227.102 -12.7487ZM261.606 21.7551L227.102 -12.7487L191.747 22.6066L226.251 57.1104L261.606 21.7551ZM243.928 64.4327H278.894V14.4327H243.928V64.4327ZM313.894 49.4327C313.894 30.1028 298.224 14.4327 278.894 14.4327V64.4327C270.61 64.4327 263.894 57.717 263.894 49.4327H313.894ZM263.894 49.4327V84.3988H313.894V49.4327H263.894ZM335.456 95.6047L306.572 66.7212L271.217 102.077L300.1 130.96L335.456 95.6047ZM335.456 145.102C349.124 131.434 349.124 109.273 335.456 95.6047L300.1 130.96C294.242 125.102 294.242 115.605 300.1 109.747L335.456 145.102ZM306.572 173.986L335.456 145.102L300.1 109.747L271.217 138.63L306.572 173.986ZM263.894 156.308V202.668H313.894V156.308H263.894ZM278.894 237.668C298.224 237.668 313.894 221.998 313.894 202.668H263.894C263.894 194.383 270.61 187.668 278.894 187.668V237.668ZM278.894 187.668H232.535V237.668H278.894V187.668ZM227.102 253.456L250.212 230.345L214.857 194.99L191.747 218.1L227.102 253.456ZM177.605 253.456C191.273 267.124 213.434 267.124 227.102 253.456L191.747 218.1C197.605 212.242 207.102 212.242 212.96 218.1L177.605 253.456ZM154.494 230.345L177.605 253.456L212.96 218.1L189.85 194.99L154.494 230.345ZM172.172 187.668H125.66V237.668H172.172V187.668ZM90.6595 202.668C90.6595 221.998 106.33 237.668 125.66 237.668V187.668C133.944 187.668 140.66 194.383 140.66 202.668H90.6595ZM140.66 202.668V156.155H90.6595V202.668H140.66ZM69.2513 145.102L97.9818 173.833L133.337 138.477L104.607 109.747L69.2513 145.102Z" fill="#FF6B00" mask="url(#path-1-inside-1_253_187)" data-v-ff54eeb7=""></path><path d="M3.70361 169.802L363.703 1.93145L355.193 52.7929L399.625 78.9676L39.6262 246.838L50.7825 194.742L3.70361 169.802Z" fill="#9030ED" data-v-ff54eeb7=""></path><path d="M121.933 179.021C118.589 180.581 115.475 181.073 112.592 180.497C109.696 179.895 107.475 178.15 105.93 175.262L114.454 171.287C115.004 172.255 115.646 172.85 116.378 173.071C117.11 173.293 117.884 173.213 118.7 172.833C119.434 172.49 119.95 172.035 120.247 171.466C120.559 170.857 120.563 170.226 120.258 169.574C119.865 168.731 119.167 168.262 118.163 168.168C117.159 168.073 115.64 168.152 113.606 168.405C111.439 168.655 109.637 168.767 108.202 168.741C106.781 168.675 105.376 168.288 103.986 167.579C102.61 166.83 101.498 165.545 100.649 163.723C99.7864 161.874 99.5132 160.082 99.8291 158.346C100.132 156.582 100.941 154.98 102.255 153.54C103.57 152.099 105.26 150.897 107.327 149.934C110.671 148.374 113.703 147.92 116.423 148.572C119.158 149.183 121.253 150.871 122.707 153.636L114.02 157.686C113.587 156.829 113.011 156.303 112.292 156.109C111.599 155.902 110.859 155.983 110.07 156.35C109.472 156.629 109.065 157.034 108.849 157.565C108.634 158.096 108.678 158.688 108.982 159.34C109.236 159.884 109.662 160.265 110.26 160.483C110.872 160.66 111.561 160.753 112.326 160.761C113.078 160.741 114.167 160.663 115.593 160.528C117.707 160.304 119.494 160.232 120.954 160.312C122.43 160.352 123.849 160.733 125.211 161.455C126.588 162.137 127.67 163.321 128.456 165.006C129.255 166.719 129.536 168.458 129.3 170.223C129.091 171.976 128.355 173.627 127.091 175.176C125.855 176.712 124.135 177.994 121.933 179.021ZM146.566 158.895L149.742 165.706L146.275 167.323C140.429 170.049 136.156 168.516 133.456 162.725L129.937 155.18L127.123 156.492L124.023 149.844L126.837 148.532L124.251 142.985L132.285 139.239L134.872 144.785L139.032 142.846L142.132 149.493L137.972 151.433L141.547 159.1C141.839 159.726 142.184 160.111 142.582 160.256C143.008 160.389 143.561 160.296 144.241 159.979L146.566 158.895ZM146.759 153.145C145.656 150.779 145.114 148.517 145.132 146.356C145.178 144.183 145.714 142.279 146.738 140.642C147.79 138.993 149.226 137.744 151.048 136.895C152.625 136.159 154.13 135.838 155.564 135.931C156.997 136.024 158.274 136.455 159.394 137.223L157.911 134.042L165.904 130.315L176.573 153.194L168.58 156.922L167.096 153.741C166.965 155.093 166.461 156.354 165.584 157.525C164.733 158.682 163.533 159.623 161.983 160.345C160.162 161.195 158.281 161.492 156.342 161.238C154.43 160.971 152.627 160.157 150.933 158.795C149.253 157.394 147.862 155.51 146.759 153.145ZM163.236 145.462C162.551 143.993 161.604 143.028 160.396 142.566C159.214 142.09 158.039 142.125 156.87 142.671C155.673 143.228 154.877 144.113 154.482 145.323C154.074 146.507 154.218 147.846 154.916 149.341C155.6 150.81 156.54 151.795 157.734 152.297C158.915 152.772 160.104 152.731 161.301 152.173C162.47 151.628 163.252 150.75 163.648 149.54C164.07 148.316 163.933 146.957 163.236 145.462ZM185.332 121.007C187.969 119.777 190.475 119.685 192.849 120.729C195.21 121.747 197.088 123.751 198.482 126.742L204.701 140.078L196.708 143.806L190.983 131.53C190.375 130.225 189.559 129.363 188.537 128.946C187.503 128.502 186.414 128.546 185.272 129.079C184.076 129.636 183.315 130.454 182.991 131.533C182.653 132.584 182.789 133.762 183.397 135.067L189.122 147.343L181.128 151.07L170.459 128.191L178.453 124.463L179.974 127.726C180.199 126.363 180.764 125.09 181.669 123.907C182.561 122.696 183.782 121.73 185.332 121.007ZM202.438 127.181C201.335 124.816 200.793 122.553 200.812 120.392C200.858 118.219 201.407 116.308 202.458 114.659C203.51 113.011 204.947 111.761 206.768 110.912C208.237 110.227 209.687 109.931 211.121 110.024C212.569 110.077 213.867 110.482 215.014 111.238L210.145 100.797L218.18 97.0506L232.253 127.231L224.218 130.977L222.735 127.796C222.604 129.148 222.113 130.403 221.263 131.561C220.413 132.719 219.213 133.659 217.663 134.382C215.841 135.231 213.961 135.529 212.022 135.274C210.11 135.007 208.307 134.193 206.612 132.831C204.933 131.43 203.541 129.547 202.438 127.181ZM218.915 119.498C218.23 118.03 217.284 117.064 216.075 116.602C214.893 116.127 213.718 116.162 212.549 116.707C211.353 117.265 210.557 118.149 210.161 119.359C209.753 120.543 209.898 121.882 210.595 123.378C211.28 124.846 212.219 125.831 213.413 126.333C214.595 126.809 215.784 126.767 216.98 126.209C218.149 125.664 218.932 124.786 219.327 123.576C219.75 122.353 219.612 120.993 218.915 119.498ZM230.159 114.255C229.056 111.889 228.513 109.627 228.532 107.466C228.578 105.293 229.113 103.389 230.138 101.752C231.19 100.103 232.626 98.8542 234.448 98.0047C236.025 97.2693 237.53 96.9481 238.964 97.0409C240.397 97.1338 241.674 97.5646 242.794 98.3334L241.31 95.1522L249.304 91.4248L259.973 114.304L251.979 118.032L250.496 114.851C250.365 116.203 249.861 117.464 248.983 118.635C248.133 119.792 246.933 120.733 245.383 121.455C243.561 122.305 241.681 122.602 239.742 122.348C237.83 122.081 236.027 121.267 234.333 119.905C232.653 118.504 231.262 116.62 230.159 114.255ZM246.635 106.572C245.951 105.104 245.004 104.138 243.795 103.676C242.614 103.2 241.438 103.235 240.269 103.781C239.073 104.338 238.277 105.223 237.882 106.433C237.474 107.617 237.618 108.956 238.315 110.451C239 111.92 239.939 112.905 241.134 113.407C242.315 113.882 243.504 113.841 244.7 113.283C245.87 112.738 246.652 111.86 247.047 110.65C247.47 109.426 247.333 108.067 246.635 106.572ZM263.735 89.6108C264.024 87.8873 264.63 86.347 265.553 84.9898C266.476 83.6326 267.671 82.6117 269.139 81.9271L273.114 90.4509L270.871 91.4969C269.131 92.3083 267.998 93.2504 267.472 94.3231C266.946 95.3959 267.076 96.7752 267.862 98.4609L272.522 108.453L264.528 112.18L253.859 89.3007L261.853 85.5732L263.735 89.6108ZM276.12 92.8227C275.017 90.4573 274.475 88.1944 274.494 86.034C274.54 83.861 275.088 81.95 276.14 80.3011C277.192 78.6521 278.628 77.4029 280.45 76.5535C281.918 75.8688 283.369 75.5729 284.803 75.6658C286.251 75.7188 287.548 76.1233 288.695 76.8794L283.827 66.4388L291.861 62.6922L305.934 92.8723L297.9 96.6188L296.417 93.4377C296.286 94.7897 295.795 96.0446 294.945 97.2024C294.094 98.3603 292.894 99.3005 291.345 100.023C289.523 100.873 287.643 101.17 285.703 100.916C283.791 100.649 281.988 99.8347 280.294 98.4731C278.615 97.0716 277.223 95.1882 276.12 92.8227ZM292.597 85.1395C291.912 83.6713 290.966 82.7059 289.757 82.2434C288.575 81.7682 287.4 81.8032 286.231 82.3484C285.034 82.9063 284.239 83.7905 283.843 85.001C283.435 86.1844 283.58 87.5238 284.277 89.0192C284.962 90.4874 285.901 91.4727 287.095 91.9751C288.277 92.4502 289.466 92.4089 290.662 91.8511C291.831 91.3059 292.613 90.428 293.009 89.2175C293.431 87.9942 293.294 86.6349 292.597 85.1395Z" fill="white" data-v-ff54eeb7=""></path><path d="M325 58L327.245 64.9098L334.511 64.9098L328.633 69.1803L330.878 76.0902L325 71.8197L319.122 76.0902L321.367 69.1803L315.489 64.9098L322.755 64.9098L325 58Z" fill="#FFD600" data-v-ff54eeb7=""></path><path d="M74 174L76.2451 180.91L83.5106 180.91L77.6327 185.18L79.8779 192.09L74 187.82L68.1221 192.09L70.3673 185.18L64.4894 180.91L71.7549 180.91L74 174Z" fill="#FFD600" data-v-ff54eeb7=""></path></svg>