<svg data-v-ff54eeb7="" width="200" height="150" viewBox="0 0 404 249" fill="none" xmlns="http://www.w3.org/2000/svg"><mask id="path-1-inside-1_253_200" fill="white" data-v-ff54eeb7=""><path fill-rule="evenodd" clip-rule="evenodd" d="M86.9289 127.424C83.0237 123.519 83.0237 117.188 86.9289 113.282L115.66 84.5518V49.4327C115.66 43.9099 120.137 39.4327 125.66 39.4327H160.779L195.282 4.92893C199.188 1.02369 205.519 1.02369 209.424 4.92893L243.928 39.4327H278.894C284.417 39.4327 288.894 43.9099 288.894 49.4327V84.3988L317.778 113.282C321.683 117.188 321.683 123.519 317.778 127.424L288.894 156.308V202.668C288.894 208.19 284.417 212.668 278.894 212.668H232.535L209.424 235.778C205.519 239.683 199.188 239.683 195.282 235.778L172.172 212.668H125.66C120.137 212.668 115.66 208.19 115.66 202.668V156.155L86.9289 127.424Z" data-v-ff54eeb7=""></path></mask><path d="M86.9289 113.282L69.2513 95.6047L69.2513 95.6047L86.9289 113.282ZM86.9289 127.424L69.2513 145.102L69.2513 145.102L86.9289 127.424ZM115.66 84.5518L133.337 102.229L140.66 94.9071V84.5518H115.66ZM160.779 39.4327V64.4327H171.134L178.456 57.1104L160.779 39.4327ZM195.282 4.92893L177.605 -12.7487L177.605 -12.7487L195.282 4.92893ZM209.424 4.92893L191.747 22.6066L191.747 22.6066L209.424 4.92893ZM243.928 39.4327L226.251 57.1104L233.573 64.4327H243.928V39.4327ZM288.894 84.3988H263.894V94.7542L271.217 102.077L288.894 84.3988ZM288.894 156.308L271.217 138.63L263.894 145.953V156.308H288.894ZM232.535 212.668V187.668H222.179L214.857 194.99L232.535 212.668ZM172.172 212.668L189.85 194.99L182.527 187.668H172.172V212.668ZM115.66 156.155H140.66V145.8L133.337 138.477L115.66 156.155ZM69.2513 95.6047C55.5829 109.273 55.5829 131.434 69.2513 145.102L104.607 109.747C110.464 115.605 110.464 125.102 104.607 130.96L69.2513 95.6047ZM97.9818 66.8741L69.2513 95.6047L104.607 130.96L133.337 102.229L97.9818 66.8741ZM140.66 84.5518V49.4327H90.6595V84.5518H140.66ZM125.66 14.4327C106.33 14.4327 90.6595 30.1027 90.6595 49.4327H140.66C140.66 57.717 133.944 64.4327 125.66 64.4327V14.4327ZM125.66 64.4327H160.779V14.4327H125.66V64.4327ZM177.605 -12.7487L143.101 21.7551L178.456 57.1104L212.96 22.6066L177.605 -12.7487ZM227.102 -12.7487C213.434 -26.4171 191.273 -26.4171 177.605 -12.7487L212.96 22.6066C207.102 28.4645 197.605 28.4645 191.747 22.6066L227.102 -12.7487ZM261.606 21.7551L227.102 -12.7487L191.747 22.6066L226.251 57.1104L261.606 21.7551ZM243.928 64.4327H278.894V14.4327H243.928V64.4327ZM313.894 49.4327C313.894 30.1028 298.224 14.4327 278.894 14.4327V64.4327C270.61 64.4327 263.894 57.717 263.894 49.4327H313.894ZM263.894 49.4327V84.3988H313.894V49.4327H263.894ZM335.456 95.6047L306.572 66.7212L271.217 102.077L300.1 130.96L335.456 95.6047ZM335.456 145.102C349.124 131.434 349.124 109.273 335.456 95.6047L300.1 130.96C294.242 125.102 294.242 115.605 300.1 109.747L335.456 145.102ZM306.572 173.986L335.456 145.102L300.1 109.747L271.217 138.63L306.572 173.986ZM263.894 156.308V202.668H313.894V156.308H263.894ZM278.894 237.668C298.224 237.668 313.894 221.998 313.894 202.668H263.894C263.894 194.383 270.61 187.668 278.894 187.668V237.668ZM278.894 187.668H232.535V237.668H278.894V187.668ZM227.102 253.456L250.212 230.345L214.857 194.99L191.747 218.1L227.102 253.456ZM177.605 253.456C191.273 267.124 213.434 267.124 227.102 253.456L191.747 218.1C197.605 212.242 207.102 212.242 212.96 218.1L177.605 253.456ZM154.494 230.345L177.605 253.456L212.96 218.1L189.85 194.99L154.494 230.345ZM172.172 187.668H125.66V237.668H172.172V187.668ZM90.6595 202.668C90.6595 221.998 106.33 237.668 125.66 237.668V187.668C133.944 187.668 140.66 194.383 140.66 202.668H90.6595ZM140.66 202.668V156.155H90.6595V202.668H140.66ZM69.2513 145.102L97.9818 173.833L133.337 138.477L104.607 109.747L69.2513 145.102Z" fill="#9030ED" mask="url(#path-1-inside-1_253_200)" data-v-ff54eeb7=""></path><path d="M3.70361 169.802L363.703 1.93145L355.193 52.7929L399.625 78.9676L39.6262 246.838L50.7825 194.742L3.70361 169.802Z" fill="#FF6B00" data-v-ff54eeb7=""></path><path d="M130.211 167.366L139.143 163.201L141.996 169.318L125.07 177.211L111.663 148.458L119.656 144.731L130.211 167.366ZM137.483 140.986C136.07 141.645 134.75 141.797 133.525 141.441C132.314 141.046 131.437 140.263 130.891 139.094C130.334 137.898 130.292 136.709 130.767 135.527C131.27 134.333 132.228 133.407 133.642 132.747C135.028 132.101 136.327 131.975 137.538 132.371C138.775 132.753 139.673 133.543 140.231 134.739C140.776 135.908 140.798 137.09 140.295 138.284C139.807 139.439 138.87 140.339 137.483 140.986ZM142.428 141.262L153.097 164.141L145.104 167.869L134.435 144.989L142.428 141.262ZM162.438 140.024L158.849 141.698L166.418 157.93L158.384 161.676L150.815 145.444L148.327 146.604L145.227 139.957L147.715 138.797L147.62 138.593C146.25 135.656 146.061 133.014 147.051 130.665C148.056 128.277 150.176 126.328 153.411 124.819C154.064 124.515 154.573 124.294 154.939 124.157L158.115 130.968C157.885 131.042 157.58 131.168 157.199 131.345C156.329 131.751 155.785 132.253 155.568 132.851C155.337 133.422 155.398 134.155 155.749 135.05L159.338 133.377L162.438 140.024ZM189.266 133.026C189.557 133.651 189.808 134.295 190.018 134.959L174.887 142.014C175.552 143.227 176.33 144.007 177.219 144.353C178.124 144.66 179.052 144.591 180.003 144.147C181.335 143.526 182.008 142.484 182.021 141.021L190.545 137.047C190.927 138.788 190.893 140.526 190.443 142.258C190.007 143.951 189.18 145.512 187.96 146.941C186.739 148.371 185.191 149.523 183.315 150.398C181.059 151.45 178.825 151.913 176.614 151.785C174.43 151.645 172.423 150.926 170.593 149.628C168.79 148.317 167.33 146.465 166.215 144.072C165.099 141.68 164.625 139.385 164.792 137.189C164.947 134.965 165.672 132.972 166.969 131.208C168.292 129.433 170.096 128.012 172.38 126.947C174.637 125.895 176.851 125.425 179.022 125.538C181.193 125.651 183.174 126.35 184.964 127.633C186.742 128.89 188.175 130.687 189.266 133.026ZM180.177 134.831C179.721 133.852 179.039 133.243 178.133 133.003C177.215 132.737 176.266 132.831 175.287 133.288C174.308 133.744 173.633 134.39 173.261 135.226C172.877 136.034 172.83 136.999 173.122 138.121L180.177 134.831ZM208.319 130.099L211.495 136.91L208.028 138.527C202.182 141.253 197.909 139.72 195.209 133.929L191.69 126.384L188.876 127.696L185.776 121.048L188.591 119.736L186.004 114.189L194.039 110.443L196.625 115.989L200.785 114.049L203.885 120.697L199.725 122.637L203.3 130.304C203.592 130.93 203.937 131.315 204.336 131.46C204.762 131.593 205.314 131.5 205.994 131.183L208.319 130.099ZM207.541 108.317C206.127 108.977 204.807 109.128 203.582 108.773C202.372 108.377 201.494 107.595 200.949 106.426C200.391 105.23 200.35 104.041 200.825 102.859C201.327 101.665 202.285 100.738 203.699 100.079C205.086 99.4323 206.384 99.3068 207.595 99.7022C208.833 100.085 209.731 100.875 210.288 102.071C210.834 103.24 210.855 104.422 210.353 105.616C209.865 106.77 208.927 107.671 207.541 108.317ZM212.486 108.593L223.155 131.473L215.161 135.201L204.492 112.321L212.486 108.593ZM246.837 92.3266C249.719 90.9827 252.382 90.8004 254.825 91.7798C257.295 92.7465 259.233 94.7389 260.641 97.7569L266.859 111.093L258.866 114.821L253.141 102.545C252.571 101.321 251.787 100.528 250.791 100.165C249.794 99.8026 248.711 99.8938 247.542 100.439C246.373 100.984 245.607 101.755 245.244 102.752C244.881 103.748 244.985 104.859 245.556 106.082L251.28 118.358L243.286 122.086L237.562 109.81C236.991 108.586 236.208 107.793 235.211 107.43C234.242 107.055 233.172 107.14 232.003 107.685C230.807 108.243 230.027 109.02 229.665 110.017C229.302 111.013 229.406 112.123 229.976 113.347L235.701 125.623L227.707 129.35L217.038 106.471L225.032 102.743L226.439 105.761C226.689 104.453 227.239 103.253 228.087 102.162C228.95 101.032 230.116 100.124 231.584 99.4393C233.27 98.6532 234.937 98.3229 236.584 98.4485C238.259 98.5613 239.787 99.1064 241.17 100.084C241.402 98.4526 242.007 96.9458 242.984 95.5633C243.949 94.1535 245.233 93.0746 246.837 92.3266ZM287.641 87.1525C287.933 87.7779 288.183 88.4222 288.393 89.0856L273.263 96.1412C273.927 97.3539 274.705 98.1335 275.594 98.4799C276.499 98.7864 277.427 98.7178 278.378 98.2741C279.711 97.6528 280.383 96.6109 280.396 95.1484L288.92 91.1736C289.302 92.9154 289.268 94.6526 288.818 96.3851C288.383 98.0777 287.555 99.6388 286.335 101.068C285.115 102.498 283.566 103.65 281.69 104.525C279.434 105.577 277.2 106.04 274.989 105.912C272.805 105.772 270.798 105.053 268.968 103.755C267.165 102.444 265.706 100.592 264.59 98.1993C263.474 95.8067 263 93.5121 263.167 91.3156C263.322 89.0918 264.048 87.0984 265.344 85.3354C266.667 83.5597 268.471 82.1393 270.755 81.0743C273.012 80.022 275.226 79.5523 277.397 79.6653C279.568 79.7783 281.549 80.4767 283.339 81.7604C285.117 83.0169 286.551 84.8142 287.641 87.1525ZM278.552 88.9577C278.096 87.9789 277.415 87.3697 276.508 87.1302C275.59 86.8635 274.641 86.9584 273.662 87.4148C272.683 87.8712 272.008 88.5172 271.636 89.3525C271.252 90.1607 271.205 91.1258 271.497 92.2478L278.552 88.9577Z" fill="white" data-v-ff54eeb7=""></path><path d="M314 63L316.245 69.9098L323.511 69.9098L317.633 74.1803L319.878 81.0902L314 76.8197L308.122 81.0902L310.367 74.1803L304.489 69.9098L311.755 69.9098L314 63Z" fill="#FFD600" data-v-ff54eeb7=""></path><path d="M339 51L341.245 57.9098L348.511 57.9098L342.633 62.1803L344.878 69.0902L339 64.8197L333.122 69.0902L335.367 62.1803L329.489 57.9098L336.755 57.9098L339 51Z" fill="#FFD600" data-v-ff54eeb7=""></path><path d="M88.0637 168.032L90.2867 174.949L97.5521 174.972L91.6607 179.224L93.8838 186.141L88.0196 181.852L82.1281 186.103L84.3953 179.201L78.5311 174.911L85.7965 174.935L88.0637 168.032Z" fill="#FFD600" data-v-ff54eeb7=""></path><path d="M64.8064 178.163L67.0515 185.073L74.317 185.073L68.4391 189.343L70.6842 196.253L64.8064 191.983L58.9285 196.253L61.1737 189.343L55.2958 185.073L62.5613 185.073L64.8064 178.163Z" fill="#FFD600" data-v-ff54eeb7=""></path></svg>